<svg xmlns="http://www.w3.org/2000/svg" viewBox="0 0 24 24" fill="#4479A1" role="img"><title>SQL</title><path d="M12 2C7.582 2 4 3.343 4 5v14c0 1.657 3.582 3 8 3s8-1.343 8-3V5c0-1.657-3.582-3-8-3zm6 17c0 .395-2.45 1.5-6 1.5S6 19.395 6 19v-2.342C7.43 17.487 9.57 18 12 18s4.57-.513 6-1.342V19zm0-5c0 .395-2.45 1.5-6 1.5S6 14.395 6 14v-2.342C7.43 12.487 9.57 13 12 13s4.57-.513 6-1.342V14zm0-5c0 .395-2.45 1.5-6 1.5S6 9.395 6 9V6.658C7.43 7.487 9.57 8 12 8s4.57-.513 6-1.342V9zM12 6.5c-3.55 0-6-1.105-6-1.5s2.45-1.5 6-1.5 6 1.105 6 1.5-2.45 1.5-6 1.5z"/></svg>
